PathFileType	4	(X/Y/Z)	/Users/itak/Documents/Research/Walk-IL/dataset/trc/00118_00007.trc
DataRate	CameraRate	NumFrames	NumMarkers	Units	OrigDataRate	OrigDataStartFrame	OrigNumFrames
100.000000	100.000000	4	55	mm	100.000000	375	750
Frame#	Time	RPSI			LPSI			L3			STRN			T10			C7			CLAV			RBAK			LBAK			LSHO			LUPA			LAEL			LAOL			LWTS			LWPS			LFRA			LIFD			LHPS			LHTS			RSHO			RUPA			RAEL			RAOL			RWTS			RWPS			RFRA			RIFD			RHTS			RHPS			RBHD			LFHD			RFHD			LBHD			LHIP			RHIP			RASI			LASI			LKNE			LTHI			LANK			LTIP			LTOE			LMT1			LMT5			LHEE			RKNE			RANK			RTIP			RTOE			RMT1			RMT5			RHEE			RTHI			*53			*54			
		X1	Y1	Z1	X2	Y2	Z2	X3	Y3	Z3	X4	Y4	Z4	X5	Y5	Z5	X6	Y6	Z6	X7	Y7	Z7	X8	Y8	Z8	X9	Y9	Z9	X10	Y10	Z10	X11	Y11	Z11	X12	Y12	Z12	X13	Y13	Z13	X14	Y14	Z14	X15	Y15	Z15	X16	Y16	Z16	X17	Y17	Z17	X18	Y18	Z18	X19	Y19	Z19	X20	Y20	Z20	X21	Y21	Z21	X22	Y22	Z22	X23	Y23	Z23	X24	Y24	Z24	X25	Y25	Z25	X26	Y26	Z26	X27	Y27	Z27	X28	Y28	Z28	X29	Y29	Z29	X30	Y30	Z30	X31	Y31	Z31	X32	Y32	Z32	X33	Y33	Z33	X34	Y34	Z34	X35	Y35	Z35	X36	Y36	Z36	X37	Y37	Z37	X38	Y38	Z38	X39	Y39	Z39	X40	Y40	Z40	X41	Y41	Z41	X42	Y42	Z42	X43	Y43	Z43	X44	Y44	Z44	X45	Y45	Z45	X46	Y46	Z46	X47	Y47	Z47	X48	Y48	Z48	X49	Y49	Z49	X50	Y50	Z50	X51	Y51	Z51	X52	Y52	Z52	X53	Y53	Z53	X54	Y54	Z54	X55	Y55	Z55	

376	3.75	738.7061767578125	1122.424926757812	-670.3662719726562	676.742919921875	1114.613159179688	-550.6812133789062	712.9925537109375	1158.06005859375	-605.0957641601562	506.6598815917969	1347.177612304688	-714.5607299804688	730.7168579101562	1309.727416992188	-599.22119140625	677.4284057617188	1598.971557617188	-596.3104248046875	527.3761596679688	1483.111938476562	-690.4859008789062	776.7758178710938	1425.05078125	-653.5965576171875	637.5963745117188	1574.016235351562	-503.5444641113281	531.0993041992188	1552.795166015625	-484.1374816894531	527.2453002929688	1422.53173828125	-408.8526000976562	523.90966796875	1204.221435546875	-387.3053588867188	609.8419799804688	1200.276977539062	-403.241943359375	477.2594909667969	941.0986938476562	-470.77392578125	534.6096801757812	920.7362060546875	-406.1311340332031	515.6444702148438	1087.070922851562	-389.5596618652344	493.8307495117188	747.9470825195312	-493.3373413085938	515.0519409179688	843.7506713867188	-418.7942199707031	464.1862487792969	850.773193359375	-467.32861328125	710.4039306640625	1589.833129882812	-783.4573974609375	758.6723022460938	1523.692626953125	-836.9009399414062	790.7618408203125	1234.450927734375	-891.1099243164062	759.30615234375	1220.708862304688	-799.7261962890625	641.3783569335938	1010.348693847656	-976.845703125	721.02685546875	987.3016967773438	-974.0664672851562	773.2003784179688	1165.536499023438	-925.6271362304688	597.3573608398438	820.6971435546875	-1006.271423339844	608.9855346679688	908.8228759765625	-1013.899230957031	683.4056396484375	896.424072265625	-1012.016357421875	641.7445678710938	1784.42578125	-683.3103637695312	445.6964416503906	1800.623046875	-586.3274536132812	472.3125610351562	1834.013427734375	-709.6813354492188	619.3182373046875	1756.37060546875	-553.5809936523438	538.4020385742188	1017.777587890625	-512.007568359375	694.11328125	1035.79248046875	-841.3999633789062	592.8568115234375	1099.775146484375	-836.4789428710938	472.3189086914062	1086.229736328125	-602.477294921875	389.4837341308594	550.2747192382812	-692.9525146484375	438.31396484375	681.7903442382812	-616.9318237304688	682.9879760742188	143.9728698730469	-532.4019165039062	551.5872192382812	357.7282104492188	-580.5610961914062	540.846435546875	37.0958366394043	-675.4098510742188	617.7889404296875	68.4393310546875	-671.5446166992188	581.1102294921875	79.94618988037109	-564.2467651367188	765.8279418945312	178.9222564697266	-558.1384887695312	695.174560546875	541.2024536132812	-845.72998046875	802.037841796875	31.58419799804688	-790.2338256835938	730.3008422851562	407.7424926757812	-847.4415283203125	574.8445434570312	37.29001235961914	-877.5040893554688	604.6787719726562	34.90982818603516	-809.978515625	703.9512329101562	35.14103698730469	-886.1405029296875	821.9346923828125	37.09046173095703	-717.6212768554688	680.5088500976562	822.7927856445312	-861.8993530273438	nan	nan	nan	nan	nan	nan	
377	3.76	732.6062622070312	1122.244873046875	-675.6419677734375	672.1298217773438	1114.957153320312	-555.1771240234375	707.9254150390625	1158.3466796875	-610.176513671875	499.5477905273438	1346.88525390625	-717.5614624023438	725.3532104492188	1309.87939453125	-605.7069091796875	671.6226806640625	1599.041259765625	-602.1226196289062	520.2761840820312	1482.884887695312	-693.748046875	770.4329223632812	1425.317260742188	-660.948974609375	633.4526977539062	1574.077758789062	-508.7371826171875	527.2737426757812	1552.52685546875	-487.4609985351562	525.3612060546875	1422.419799804688	-411.8663024902344	523.210693359375	1204.220825195312	-389.803466796875	608.7871704101562	1200.380737304688	-407.5586242675781	475.2601318359375	940.97314453125	-472.0084533691406	533.8939208984375	920.689697265625	-408.53564453125	515.140625	1087.042114257812	-391.7073974609375	490.9470825195312	747.937255859375	-494.7165832519531	514.1041870117188	843.7654418945312	-420.6042175292969	462.3324584960938	850.6511840820312	-468.2032775878906	701.5094604492188	1590.006591796875	-789.7224731445312	748.9221801757812	1523.935913085938	-844.060302734375	779.5394287109375	1234.677856445312	-899.54931640625	749.7074584960938	1220.67138671875	-807.5811157226562	627.0902709960938	1012.023193359375	-983.7171020507812	706.6995239257812	988.4578247070312	-982.3931274414062	760.9720458984375	1165.96728515625	-934.0160522460938	581.2276611328125	822.8477783203125	-1013.403442382812	593.3340454101562	910.9828491210938	-1020.78515625	667.7160034179688	898.0419921875	-1020.104797363281	633.62451171875	1784.53759765625	-688.5404663085938	439.1075744628906	1799.797119140625	-588.3378295898438	463.4827270507812	1833.220336914062	-712.1747436523438	613.3272705078125	1756.411987304688	-558.47607421875	533.9193115234375	1018.430725097656	-515.0213012695312	686.2369995117188	1034.990356445312	-845.7689208984375	585.0313720703125	1099.12548828125	-840.33740234375	466.9747314453125	1086.553955078125	-605.0123291015625	378.9155883789062	553.2078857421875	-695.6754150390625	429.8231506347656	683.7649536132812	-619.3713989257812	662.3526000976562	133.2945861816406	-552.1492309570312	537.7293701171875	352.6922302246094	-591.0322875976562	510.89892578125	37.45794677734375	-693.2534790039062	590.0917358398438	64.61834716796875	-690.7929077148438	556.434814453125	75.43881225585938	-582.2711181640625	746.1035766601562	165.3162689208984	-579.4282836914062	690.17431640625	540.481689453125	-847.8067016601562	801.830078125	32.02405548095703	-790.257568359375	726.4622192382812	407.1929321289062	-848.9285888671875	574.8164672851562	37.26257705688477	-877.554931640625	604.5789794921875	34.69708251953125	-809.9227905273438	703.7523193359375	35.22054672241211	-886.0634765625	821.93505859375	37.49939346313477	-717.6116943359375	673.4102172851562	821.9025268554688	-865.1156005859375	nan	nan	nan	nan	nan	nan	
378	3.77	726.423828125	1121.97216796875	-680.7897338867188	667.4083862304688	1115.168823242188	-559.5755004882812	702.7328491210938	1158.485717773438	-615.1653442382812	492.40625	1346.473999023438	-720.4557495117188	719.8450317382812	1309.901123046875	-612.0031127929688	665.7097778320312	1598.982177734375	-607.7344360351562	513.1619262695312	1482.535278320312	-696.8868408203125	763.9684448242188	1425.422241210938	-668.0738525390625	629.1495361328125	1574.003051757812	-513.795166015625	523.27880859375	1552.118286132812	-490.7310791015625	523.2605590820312	1422.159545898438	-414.9081420898438	522.3373413085938	1204.056274414062	-392.4623718261719	607.524658203125	1200.343994140625	-411.9976501464844	473.2140502929688	940.6717529296875	-473.3963623046875	533.1632080078125	920.4859008789062	-411.1040344238281	514.5108032226562	1086.851928710938	-394.0281372070312	488.29345703125	747.7085571289062	-496.2223510742188	513.1829833984375	843.6100463867188	-422.5924377441406	460.5386352539062	850.3224487304688	-469.22119140625	692.6124267578125	1590.037841796875	-795.7330932617188	739.1817016601562	1524.034790039062	-850.9228515625	768.3133544921875	1234.757202148438	-907.6151733398438	740.03662109375	1220.447998046875	-815.1054077148438	612.7874145507812	1013.57861328125	-990.1751098632812	692.333984375	989.4921875	-990.2875366210938	748.7246704101562	1166.239990234375	-942.0073852539062	565.0697021484375	824.9243774414062	-1020.092224121094	577.654052734375	913.0681762695312	-1027.24365234375	651.9595336914062	899.5543823242188	-1027.740356445312	625.48974609375	1784.509399414062	-693.5606689453125	432.5191345214844	1798.892456054688	-590.24365234375	454.7041625976562	1832.331787109375	-714.518798828125	607.2772827148438	1756.334716796875	-563.2213134765625	529.29541015625	1018.927185058594	-517.9872436523438	678.4009399414062	1034.1123046875	-850.0576782226562	577.1771850585938	1098.404174804688	-844.0736083984375	461.5340881347656	1086.71142578125	-607.5071411132812	368.5964050292969	555.7970581054688	-697.8344116210938	421.5782775878906	685.445556640625	-621.3704833984375	640.7944946289062	122.6645660400391	-571.662841796875	523.5252075195312	347.4609069824219	-601.1768188476562	480.6300048828125	38.24054718017578	-710.3671264648438	561.6162719726562	61.36032485961914	-709.4755249023438	531.2461547851562	70.99042510986328	-599.8199462890625	725.1885375976562	151.900390625	-600.5653686523438	685.152099609375	539.7217407226562	-849.8623657226562	801.6428833007812	32.51210021972656	-790.3174438476562	722.6350708007812	406.6188049316406	-850.4044799804688	574.8008422851562	37.22920608520508	-877.6124877929688	604.5029296875	34.49786376953125	-809.87744140625	703.5274658203125	35.30424880981445	-886.0020751953125	821.98974609375	37.98869705200195	-717.6408081054688	666.31005859375	820.9715576171875	-868.2565307617188	nan	nan	nan	nan	nan	nan	
379	3.78	720.1414794921875	1121.607421875	-685.8109741210938	662.563232421875	1115.237915039062	-563.8784790039062	697.3928833007812	1158.476440429688	-620.0550537109375	485.2315368652344	1345.943603515625	-723.256103515625	714.1851196289062	1309.787353515625	-618.0944213867188	659.6842651367188	1598.792724609375	-613.1378784179688	506.025146484375	1482.057983398438	-699.90673828125	757.3897094726562	1425.380615234375	-674.9450073242188	624.6719360351562	1573.786987304688	-518.7031860351562	519.113525390625	1551.573852539062	-493.9306640625	520.9282836914062	1421.747924804688	-417.9656677246094	521.2936401367188	1203.722900390625	-395.2569274902344	606.055419921875	1200.173461914062	-416.5549926757812	471.0695190429688	940.198974609375	-474.9265747070312	532.4172973632812	920.1198120117188	-413.8357543945312	513.7564697265625	1086.4912109375	-396.5025024414062	485.85888671875	747.2594604492188	-497.8628540039062	512.2923583984375	843.2677612304688	-424.7726135253906	458.7947692871094	849.7843017578125	-470.3740539550781	683.7212524414062	1589.9267578125	-801.4855346679688	729.46240234375	1523.9873046875	-857.4796142578125	757.0965576171875	1234.689697265625	-915.3206176757812	730.3130493164062	1220.041870117188	-822.3017578125	598.482421875	1015.009826660156	-996.2036743164062	677.9321899414062	990.3968505859375	-997.7468872070312	736.4649047851562	1166.356567382812	-949.6126708984375	548.8973388671875	826.9200439453125	-1026.303833007812	561.9553833007812	915.0692138671875	-1033.245361328125	636.1326904296875	900.9483642578125	-1034.915283203125	617.3410034179688	1784.342529296875	-698.369384765625	425.9175415039062	1797.904418945312	-592.0567626953125	445.9806518554688	1831.346801757812	-716.7235107421875	601.173095703125	1756.143676757812	-567.8051147460938	524.5394287109375	1019.243835449219	-520.9100341796875	670.5806274414062	1033.170532226562	-854.255859375	569.2963256835938	1097.602783203125	-847.6854858398438	455.9732055664062	1086.692626953125	-609.9607543945312	358.5246276855469	558.0228271484375	-699.4573364257812	413.5942687988281	686.7857055664062	-622.9303588867188	618.3712768554688	112.2775726318359	-590.8079833984375	509.006103515625	342.1376647949219	-610.9728393554688	450.1203308105469	39.52988052368164	-726.5878295898438	532.3676147460938	58.76828765869141	-727.4408569335938	505.5895690917969	66.76026153564453	-616.76513671875	703.1511840820312	138.8532257080078	-621.4005126953125	680.1356201171875	538.9124755859375	-851.8968505859375	801.4824829101562	33.04259490966797	-790.413818359375	718.8311157226562	406.0096435546875	-851.8779907226562	574.7933959960938	37.18564605712891	-877.6755981445312	604.444580078125	34.31786346435547	-809.8390502929688	703.2819213867188	35.39000701904297	-885.9593505859375	822.099365234375	38.54489135742188	-717.7228393554688	659.2160034179688	819.9953002929688	-871.3280029296875	nan	nan	nan	nan	nan	nan	
